<svg width="25" height="25" viewBox="0 0 25 25" fill="none" xmlns="http://www.w3.org/2000/svg">
    <path
        d="M18.7048 15.9471C18.7132 16.0062 18.7662 16.017 18.8084 16.0278C20.721 16.4964 21.9411 18.7246 21.528 20.6529C21.2413 21.9874 20.4873 23.0196 19.1889 23.5977C18.6012 23.8591 17.9978 24.0024 17.3486 24C15.1433 23.9891 12.938 23.9964 10.7314 23.9964C10.3436 23.9964 10.3364 23.9891 10.3364 23.6013C10.3352 21.7176 10.3364 19.835 10.3292 17.9513C10.328 17.7273 10.3882 17.6153 10.6327 17.6321C10.8591 17.6466 11.0843 17.6466 11.3108 17.6791C12.2695 17.8176 12.7501 18.3572 12.791 19.4713C12.8368 20.6938 12.8091 21.9187 12.7958 23.1436C12.7922 23.4255 12.8741 23.5254 13.1632 23.5206C14.0713 23.5062 14.9783 23.5363 15.8876 23.4724C17.3799 23.3688 18.7566 22.168 19.0673 20.7191C19.4587 18.892 18.606 17.26 16.9933 16.5229C16.4814 16.288 15.9189 16.2181 15.3601 16.2025C14.5748 16.1808 13.7883 16.2001 13.0018 16.1904C12.8199 16.188 12.7705 16.2446 12.791 16.4193C12.8103 16.5867 12.791 16.7577 12.8019 16.9276C12.8163 17.1528 12.7115 17.2226 12.4971 17.2202C11.872 17.2118 11.2469 17.2106 10.6218 17.2214C10.393 17.225 10.3304 17.1275 10.3316 16.9167C10.3352 14.7981 10.3304 12.6795 10.3388 10.5609C10.34 10.3646 10.3135 10.3345 10.1112 10.3622C8.55985 10.567 7.04949 10.4598 5.64151 9.70217C4.14079 8.894 3.29167 7.66789 3.03272 5.96603C2.76774 4.22201 4.13959 1.81074 6.15701 1.21214C7.51561 0.808656 8.75497 0.972459 9.8775 1.77461C10.9001 2.5057 11.3614 3.54151 11.1458 4.80737C11.0446 5.40115 10.7411 5.91785 10.3809 6.39842C10.3328 6.46346 10.2581 6.52127 10.1931 6.44419C10.1063 6.34181 9.96783 6.24907 10.0317 6.08045C10.0545 6.02023 10.0991 5.96603 10.1413 5.91665C11.0663 4.82664 10.8868 3.12718 9.61854 2.13353C7.948 0.823109 5.69692 1.35186 4.77191 3.25847C4.19138 4.45447 4.22992 5.66131 4.67797 6.87176C5.31391 8.58928 6.58699 9.59378 8.35871 9.96835C9.09943 10.1249 9.84136 10.0081 10.5688 9.77685C11.3505 9.52874 12.0286 9.11802 12.6429 8.59169C12.7452 8.50376 12.8585 8.4857 12.9849 8.4857C14.3953 8.48811 15.8105 8.42066 17.2173 8.50497C19.6189 8.64829 20.9643 9.95631 21.1739 12.2833C21.2545 13.1758 20.8426 14.0056 20.3043 14.7415C19.9188 15.269 19.4118 15.628 18.8096 15.8677C18.765 15.8785 18.7192 15.8929 18.7048 15.9471ZM12.7898 12.2724C12.7922 12.2724 12.7958 12.2724 12.7982 12.2724C12.7982 13.3263 12.8019 14.3814 12.7946 15.4353C12.7934 15.6376 12.85 15.7231 13.068 15.7195C13.863 15.7087 14.6579 15.7063 15.454 15.7123C16.974 15.7231 18.1291 14.6789 18.5097 13.6419C19.1155 11.9906 18.6349 10.3586 16.974 9.39504C16.4332 9.08069 15.831 8.99758 15.2276 8.96988C14.4628 8.93375 13.6943 8.95783 12.9283 8.94579C12.7826 8.94338 12.7862 8.99878 12.7874 9.1108C12.7922 10.1635 12.7898 11.2173 12.7898 12.2724Z"
        fill="#E1B4BB" />
</svg>
    