<svg xmlns="http://www.w3.org/2000/svg" width="184" height="35" fill="none">
	<g clip-path="url(#a)">
		<path fill="url(#b)"
			d="M144.524 11.8651c.311 0 .568-.0053.824.0019 1.019.0249 2.039-.0285 3.06.048 1.578.1194 2.682.9437 3.5 2.2203 1.309 2.0411 2.616 4.084 3.92 6.1288.254.397.272.3988.567.0249 1.58-2.0014 3.166-3.9991 4.746-6.0005.526-.6677 1.043-1.3425 1.563-2.0137.12-.1533.231-.3206.432-.3829.106-.0338.234-.0569.309.0481.071.1015-.031.1799-.087.2546-.511.6624-1.02 1.3247-1.536 1.9836-1.601 2.0368-3.21 4.0703-4.808 6.1108-.592.7568-.739.5929-.088 1.6007 2.176 3.3724 4.338 6.7537 6.517 10.1225.496.7656 1.141 1.403 1.887 1.9372.447.3186.96.4416 1.48.5556.097.0213.261.0053.233.1672-.02.1176-.16.0908-.251.089-1.27-.0141-2.55.1123-3.811-.0978-1.337-.2227-2.374-.9437-3.113-2.0761-1.697-2.6033-3.389-5.21-5.085-7.8149-.151-.2333-.307-.4648-.453-.7015-.104-.1674-.178-.1674-.304-.0072-1.389 1.7628-2.785 3.5184-4.175 5.2794-1.338 1.695-2.672 3.3938-4.009 5.0906-.051.0658-.112.1247-.174.1816-.144.1281-.336.2261-.491.098-.182-.1514.011-.3063.105-.4238 1.551-1.9533 3.114-3.8977 4.664-5.851 1.152-1.4511 2.291-2.9147 3.435-4.3712.529-.673.531-.673.061-1.4066-1.563-2.4412-3.116-4.8876-4.694-7.3199-.53-.8155-1.073-1.6274-1.826-2.2738-.512-.4415-1.108-.6872-1.743-.8759-.21-.0696-.466-.0659-.655-.326Zm23.433.2583c1.823.5858 2.457 1.4458 2.457 3.3473 0 6.2373-.002 12.4728 0 18.7101 0 .5751.009.5822.59.5822 1.3-.0016 2.599-.0427 3.897-.0658 2.7-.0481 5.4-.016 8.099-.0178.113 0 .225.0036.338-.0017.217-.0108.531.0319.541-.2494.014-.2974-.307-.251-.518-.2618-.237-.0123-.476-.0035-.713-.0035-2.645 0-5.289.0018-7.934-.0035-.719-.0018-.763-.0517-.763-.7514V21.8398c0-.6071.003-.6071.596-.6071 2.602-.0019 5.205-.0019 7.807-.0035.126 0 .253-.0019.377-.0037.213-.0017.347-.0907.352-.3205.007-.2527-.137-.3471-.367-.3507a30.951 30.951 0 0 0-.42-.0035h-7.805c-.525 0-.54-.0143-.54-.5431-.002-2.3113-.002-4.6223 0-6.9335 0-.5217.014-.5307.549-.5307 2.854 0 5.707-.0016 8.561-.0016.168 0 .336-.0019.504-.0072.187-.0053.281-.1033.285-.2885.002-.1834-.045-.3418-.258-.3668-.166-.0196-.335-.0159-.503-.0159-4.926-.0019-9.85-.0019-14.774-.0019h-.81c.12.2262.306.2155.452.2618Zm-46.37.0481c1.577.4735 2.249 1.3639 2.249 2.9947 0 3.4937-.021 6.987.006 10.4804.014 1.8197.398 3.5559 1.382 5.1351 1.765 2.8347 4.422 4.1825 7.656 4.1808 2.569-.0018 4.859-.9988 6.577-3.0233 1.4-1.6525 2.181-3.5434 2.177-5.7298-.005-4.5511-.003-9.1023-.005-13.6534 0-.0694.004-.1388-.002-.2083-.019-.1994.03-.4824-.254-.4915-.28-.0089-.26.2797-.301.4755-.091.431.039.8583.039 1.2891-.007 3.6181.016 7.238-.016 10.8561-.009.9828.018 1.9817-.195 2.9503-.762 3.4525-2.835 5.712-6.287 6.613-1.968.5128-3.729.0213-5.119-1.4814-1.197-1.2945-1.731-2.8988-1.968-4.6169-.163-1.1931-.085-2.3896-.089-3.5862-.009-3.9527-.001-7.9056 0-11.8584 0-.6072-.023-.6322-.638-.6322-.84-.0016-1.678 0-2.518 0h-3.295c.19.2386.409.2494.601.3064Zm-15.907-.0982c.198.0677.399.1283.596.1978 1.301.4628 2.014 1.4457 2.016 2.8184.004 6.3317.002 12.6634 0 18.995 0 .6767 0 .6784.662.6784 1.285-.0017 2.571-.0481 3.856-.0659 3.174-.0444 6.348-.016 9.523-.0178.153 0 .309.0053.46-.0107.166-.0196.376-.0391.379-.2492.004-.2173-.206-.2351-.373-.2458-.196-.0141-.392-.0088-.587-.0088-3.189 0-6.377 0-9.566-.0018-.788 0-.816-.0356-.816-.8227V12.5079c0-.6428-.002-.6428-.659-.6428h-5.765c.08.1674.185.1778.274.2082Z" />
		<path fill="currentColor"
			d="M24.7024 22.8861c.0124.0872.0908.1031.153.1193 2.8255.6925 4.6279 3.9866 4.0177 6.8371-.4235 1.973-1.5374 3.4988-3.4554 4.3536-.8683.3864-1.7597.5982-2.7188.5947-3.2579-.016-6.5157-.0053-9.7754-.0053-.573 0-.5836-.0107-.5836-.5841-.0019-2.7848 0-5.5677-.0107-8.3525-.0018-.3313.0871-.4969.4485-.4719.3345.0213.6671.0213 1.0016.0694 1.4164.2048 2.1262 1.0025 2.1867 2.6495.0677 1.8072.0268 3.6181.0072 5.4289-.0053.4167.1157.5645.5427.5573 1.3415-.0213 2.6814.0231 4.0247-.0712 2.2045-.1531 4.2383-1.9284 4.6974-4.0704.5783-2.701-.6816-5.1138-3.064-6.2033-.7562-.3473-1.5871-.4506-2.4127-.4737-1.1601-.0322-2.3221-.0035-3.4838-.0179-.2687-.0035-.3417.0802-.3115.3383.0285.2476 0 .5004.0161.7515.0213.3329-.1335.4362-.4502.4326a90.089 90.089 0 0 0-2.7704.0018c-.338.0053-.4305-.1389-.4288-.4504.0053-3.1321-.0017-6.2641.0107-9.396.0018-.2903-.0373-.3348-.3363-.2937-2.2916.3025-4.5229.1441-6.603-.9759-2.217-1.1947-3.4713-3.0074-3.8538-5.5233-.3916-2.5781 1.6352-6.1428 4.6154-7.0278 2.007-.5965 3.838-.3543 5.4962.8316 1.5107 1.0807 2.1921 2.612 1.8737 4.4833-.1495.878-.598 1.6417-1.1299 2.3522-.0712.0962-.1814.1815-.2775.0677-.1282-.1514-.3327-.2885-.2385-.5378.0338-.089.0996-.1692.1618-.242 1.3667-1.6116 1.1015-4.124-.7721-5.593-2.468-1.937-5.7933-1.1554-7.16 1.6633-.8576 1.7681-.8006 3.5522-.1386 5.3416.9395 2.5392 2.8202 4.0241 5.4374 4.5779 1.0943.2315 2.1904.0587 3.265-.283 1.1548-.3668 2.1566-.974 3.064-1.7522.1513-.1299.3184-.1567.5053-.1567 2.0836.0036 4.1742-.0962 6.2525.0284 3.5479.212 5.5354 2.1457 5.845 5.5857.1191 1.3194-.4894 2.5462-1.2847 3.6341-.5695.7799-1.3185 1.3105-2.2081 1.6648-.0659.0161-.1335.0373-.1548.1175Zm-8.738-5.4325h.0123c0 1.558.0054 3.1177-.0053 4.6757-.0017.299.0819.4255.4038.4202 1.1749-.0161 2.35-.0196 3.5249-.0107 2.2454.016 3.9518-1.5277 4.514-3.0608.895-2.441.185-4.8538-2.2686-6.2783-.7989-.4646-1.6885-.5874-2.5799-.6284-1.1299-.0535-2.265-.0178-3.3967-.0356-.2153-.0035-.21.0783-.2082.2439.0072 1.5563.0037 3.1142.0037 4.674Zm69.0698 7.3158c0-3.0625-.0017-6.125.0018-9.1875 0-.4203-.0338-.837-.1299-1.243-.2828-1.1894-1.064-1.8891-2.2329-2.1882-.0677-.0179-.1389-.0232-.2047-.0445-.1174-.0374-.29-.057-.2722-.2085.0195-.1762.1992-.1174.3113-.1066 1.1317.0925 2.265.0515 3.3967.055 2.3789.009 4.7578-.0231 7.1349.009 4.6155.0659 7.8238 2.3112 9.7788 6.3992.869 1.8144 1.269 3.7571 1.137 5.7601-.286 4.4087-2.781 8.3491-7.1882 10.1509-1.0836.4435-2.249.6144-3.4108.6002-2.6014-.0303-5.2027.0391-7.8041.0248-.4198-.0017-.5159-.1619-.5141-.5413.0106-3.1605.0053-6.3208.0053-9.4796h-.0089Zm3.6547-1.4725c0 3.4382.0035 6.8765-.0071 10.3147-.0019.3419.0961.4665.4484.4612 1.2027-.016 2.4074.0338 3.6084-.0143 1.7241-.0712 3.2419-.6641 4.4748-1.9122 1.1495-1.1628 1.9661-2.5267 2.5088-4.0544.7238-2.0423.9128-4.1434.6908-6.2924-.232-2.2293-.874-4.3054-2.1978-6.1394-1.4466-2.0049-3.3664-3.1319-5.8983-3.1034-1.0071.0106-2.0143.0035-3.0212.0053-.6033.0018-.6033.0035-.6033.5893-.0035 3.3795-.0035 6.7627-.0035 10.1456Zm-51.7487-3.5462c0 2.3806-.0231 4.7612.009 7.1418.0213 1.6202.3879 3.164 1.2241 4.5867.991 1.6826 2.4554 2.6423 4.3949 2.7205 1.4055.0571 2.7454-.3755 3.9198-1.1662 2.0941-1.4102 3.5104-3.2905 3.8841-5.842.0907-.6213.0658-1.2499.0658-1.8766.0018-3.7588-.0035-7.5175-.0053-11.2762 0-.5984.0036-1.1947.0053-1.7931 0-.2191.0623-.3845.3239-.3953.2775-.0124.3701.1389.3665.3882-.0035.251 0 .5003 0 .7514 0 4.4407.048 8.8831-.0178 13.3221-.0444 3.009-1.4127 5.4128-3.8753 7.1365-1.5355 1.0735-3.3255 1.6256-5.1866 1.5436-4.5781-.2012-7.7221-3.0625-8.5939-7.3021-.1353-.6551-.1709-1.3228-.1709-1.9924.0036-3.3686 0-6.7375.0036-10.1063 0-.4345-.0356-.8636-.137-1.2837-.2847-1.1949-1.0748-1.8786-2.249-2.1653-.0677-.016-.1389-.0213-.2047-.0445-.1138-.0392-.281-.0569-.2473-.2226.0303-.1461.1851-.0943.2865-.089 1.8593.1156 3.7186.0356 5.5781.0571.6121.007.6192.0016.6192.5965.0035 2.4357.0017 4.8715.0017 7.309 0 .0019.0036.0019.0053.0019Zm33.7015 3.272V33.462c0 .5947.0018.6037.6014.6055 3.1475.0106 6.2951.0141 9.4427.0213.3221 0 .6423-.0072.9626.0481.1636.0284.3114.0659.3114.2652 0 .212-.1406.2957-.3292.2992-.726.009-1.4537.0125-2.1797.016l-11.7415.0642c-.6992.0035-.7028 0-.7028-.682-.0035-6.125-.0035-12.2502-.007-18.3754 0-.3614.0123-.7228-.0464-1.0825-.2152-1.3282-.9945-2.1349-2.281-2.4909-.1816-.05-.516-.0035-.4822-.2583.0268-.203.3417-.1121.5213-.1015 1.79.1123 3.5799.0339 5.3699.0534.5409.0055.5605.0198.5623.5699-.0018 3.5361-.0018 7.0723-.0018 10.6085Zm-9.9504.2902v10.8543c0 .609 0 .6106-.5925.6106-.8399.0019-1.6797-.0194-2.5177.009-.4164.0142-.5356-.1477-.5267-.5341.0178-.7087.0019-1.4192.0019-2.1297 0-5.4822 0-10.9664.0035-16.4486 0-.8014-.0409-1.5883-.4876-2.2916-.3861-.609-.959-.9579-1.6333-1.1663-.1601-.0499-.3239-.089-.4822-.1406-.1068-.0339-.2438-.082-.2225-.2101.0268-.1531.1816-.0944.2812-.0872 1.829.1353 3.6617.0356 5.4926.0639.6851.0108.6886.002.6886.6982.0018 3.5895 0 7.1809 0 10.7704-.0017.0018-.0035.0018-.0053.0018Z" />
	</g>
	<defs>
		<linearGradient id="b" x1="130.599" x2="159.316" y1="47.5254" y2="-2.1775"
			gradientUnits="userSpaceOnUse">
			<stop stop-color="#DCACA0" />
			<stop offset=".1156" stop-color="#E2B5AA" />
			<stop offset=".4244" stop-color="#EDC9C0" />
			<stop offset=".7235" stop-color="#F5D5CD" />
			<stop offset="1" stop-color="#F7D9D1" />
		</linearGradient>
		<clipPath id="a">
			<path fill="#fff" d="M0 0h184v35H0z" />
		</clipPath>
	</defs>
</svg>